<?xml version="1.0" encoding="UTF-8" standalone="no"?><!DOCTYPE svg PUBLIC "-//W3C//DTD SVG 1.1//EN" "http://www.w3.org/Graphics/SVG/1.1/DTD/svg11.dtd"><svg width="100%" height="100%" viewBox="0 0 511 511" version="1.1" xmlns="http://www.w3.org/2000/svg" xmlns:xlink="http://www.w3.org/1999/xlink" xml:space="preserve" style="fill-rule:evenodd;clip-rule:evenodd;stroke-linejoin:round;stroke-miterlimit:1.41421;"><path d="M277.308,149.449l-42.632,0c-5.891,0 -10.672,-4.773 -10.672,-10.664c0,-5.891 4.781,-10.664 10.672,-10.664l42.632,0c5.905,0 10.687,4.773 10.687,10.664c0,5.891 -4.781,10.664 -10.687,10.664Z" style="fill:#fff;fill-rule:nonzero;"/><path d="M405.273,362.707c-141.332,0 -255.906,-114.582 -255.906,-255.913c0,-31.765 5.797,-62.186 16.374,-90.255c-96.794,36.491 -165.651,129.973 -165.651,239.539c0,141.331 114.575,255.906 255.914,255.906c109.551,0 203.048,-68.857 239.517,-165.651c-28.063,10.578 -58.467,16.374 -90.248,16.374Z" style="fill:#fff;fill-rule:nonzero;"/><path d="M277.308,490.656c-141.316,0 -255.89,-114.574 -255.89,-255.906c0,-65.217 24.405,-124.738 64.561,-169.924c-52.687,46.874 -85.889,115.176 -85.889,191.252c0,141.331 114.575,255.906 255.914,255.906c76.053,0 144.363,-33.203 191.235,-85.903c-45.184,40.184 -104.715,64.575 -169.931,64.575Z" style="fill:#fff;fill-rule:nonzero;"/><path d="M383.961,138.785c0,5.891 -4.781,10.664 -10.688,10.664c-5.875,0 -10.656,-4.773 -10.656,-10.664c0,-5.891 4.781,-10.664 10.656,-10.664c5.907,0 10.688,4.773 10.688,10.664Z" style="fill:#fff;fill-opacity:0.8;fill-rule:nonzero;"/><path d="M330.65,245.414c0,5.883 -4.781,10.664 -10.687,10.664c-5.875,0 -10.656,-4.781 -10.656,-10.664c0,-5.891 4.781,-10.664 10.656,-10.664c5.906,0 10.687,4.773 10.687,10.664Z" style="fill:#fff;fill-rule:nonzero;"/><path d="M511.894,117.285c0,5.891 -4.781,10.664 -10.656,10.664c-5.874,0 -10.655,-4.773 -10.655,-10.664c0,-5.89 4.781,-10.663 10.655,-10.663c5.875,0 10.656,4.773 10.656,10.663Z" style="fill:#fff;fill-opacity:0.8;fill-rule:nonzero;"/><path d="M319.964,10.656c0,5.891 -4.75,10.664 -10.656,10.664c-5.875,0 -10.656,-4.773 -10.656,-10.664c0,-5.883 4.781,-10.656 10.656,-10.656c5.906,0 10.656,4.773 10.656,10.656Z" style="fill:#fff;fill-rule:nonzero;"/><path d="M256.004,106.13c-5.891,0 -10.672,3.66 -10.672,8.164l0,48.98c0,4.504 4.781,8.158 10.672,8.158c5.875,0 10.656,-3.654 10.656,-8.158l0,-48.98c0,-4.504 -4.781,-8.164 -10.656,-8.164Z" style="fill:#fff;fill-rule:nonzero;"/><path d="M437.272,223.423c-5.906,0 -10.656,3.654 -10.656,8.164l0,48.969c0,4.521 4.75,8.17 10.656,8.17c5.874,0 10.654,-3.649 10.654,-8.17l0,-48.969c0.001,-4.509 -4.78,-8.164 -10.654,-8.164Z" style="fill:#fff;fill-rule:nonzero;"/><path d="M458.583,266.734l-42.653,0c-5.875,0 -10.656,-4.773 -10.656,-10.656c0,-5.891 4.781,-10.664 10.656,-10.664l42.653,0c5.906,0 10.656,4.773 10.656,10.664c0,5.883 -4.75,10.656 -10.656,10.656Z" style="fill:#fff;fill-rule:nonzero;"/></svg>